<?xml version="1.0" encoding="utf-8"?>
<!-- Generator: Adobe Illustrator 16.0.4, SVG Export Plug-In . SVG Version: 6.00 Build 0)  -->
<!DOCTYPE svg PUBLIC "-//W3C//DTD SVG 1.1//EN" "http://www.w3.org/Graphics/SVG/1.1/DTD/svg11.dtd">
<svg version="1.1" xmlns="http://www.w3.org/2000/svg" xmlns:xlink="http://www.w3.org/1999/xlink" x="0px" y="0px" width="315px"
	 height="171px" viewBox="0 0 315 171" enable-background="new 0 0 315 171" xml:space="preserve">
<g id="artwork">
	<g id="New_Symbol_9">
	</g>
	<g id="New_Symbol_195">
		<g>
			<g>
				<g>
					<path fill="#262626" d="M50.71,87.175v10.509c0,0.812-0.237,1.559-0.644,2.168l-1.83,3.254
						c-0.102,0.136-0.271,0.271-0.475,0.271h-1.898c-0.204,0-0.373-0.135-0.475-0.271l-1.39-2.508l-1.423,2.508
						c-0.102,0.136-0.271,0.271-0.475,0.271h-1.898c-0.169,0-0.373-0.135-0.441-0.271l-1.864-3.254
						c-0.407-0.61-0.644-1.356-0.644-2.168V87.175c0-0.305,0.237-0.542,0.542-0.542h1.084c0.306,0,0.542,0.237,0.542,0.542v10.509
						c0,0.203,0.034,0.373,0.102,0.576l1.627,2.881l1.661-2.881c0.067-0.203,0.102-0.373,0.102-0.576V87.175
						c0-0.305,0.237-0.542,0.542-0.542h1.085c0.271,0,0.542,0.237,0.542,0.542v10.509c0,0.203,0.033,0.373,0.067,0.576l1.661,2.881
						l1.626-2.881c0.068-0.203,0.102-0.373,0.102-0.576V87.175c0-0.305,0.238-0.542,0.542-0.542h1.085
						C50.473,86.633,50.71,86.871,50.71,87.175z"/>
					<path fill="#262626" d="M56.542,88.769v5.118h2.949c0.306,0,0.542,0.238,0.542,0.542v1.084c0,0.306-0.237,0.542-0.542,0.542
						h-2.949v5.153h2.949c0.306,0,0.542,0.237,0.542,0.542v1.084c0,0.305-0.237,0.542-0.542,0.542h-4.033
						c-0.611,0-1.085-0.508-1.085-1.085V87.684c0-0.61,0.474-1.085,1.085-1.085h4.033c0.306,0,0.542,0.237,0.542,0.543v1.084
						c0,0.306-0.237,0.542-0.542,0.542H56.542z"/>
					<path fill="#262626" d="M68.982,91.649v-1.152c0-0.949-0.78-1.729-1.729-1.729s-1.729,0.779-1.729,1.729
						c0,0.441,0,0.441,0.102,0.577l4.711,6.236c0.814,1.085,0.814,1.085,0.814,2.17c0,2.136-1.763,3.897-3.899,3.897
						s-3.898-1.762-3.898-3.897v-1.152c0-0.305,0.237-0.542,0.543-0.542h1.084c0.305,0,0.542,0.237,0.542,0.542v1.152
						c0,0.949,0.779,1.729,1.729,1.729s1.729-0.78,1.729-1.729c0-0.441,0-0.441-0.102-0.577l-4.711-6.236
						c-0.814-1.085-0.814-1.085-0.814-2.17c0-2.136,1.762-3.898,3.898-3.898s3.899,1.763,3.899,3.898v1.152
						c0,0.306-0.238,0.543-0.543,0.543h-1.085C69.219,92.192,68.982,91.955,68.982,91.649z"/>
					<path fill="#262626" d="M80.439,87.142v1.084c0,0.306-0.237,0.542-0.542,0.542h-1.525v14.067c0,0.271-0.238,0.542-0.542,0.542
						h-1.085c-0.305,0-0.542-0.271-0.542-0.542V88.769h-1.525c-0.305,0-0.542-0.237-0.542-0.542v-1.084
						c0-0.306,0.237-0.543,0.542-0.543h5.22C80.203,86.599,80.439,86.836,80.439,87.142z"/>
					<path fill="#262626" d="M95.117,91.649v-1.152c0-0.949-0.779-1.729-1.728-1.729c-0.95,0-1.729,0.779-1.729,1.729v8.983
						c0,0.949,0.78,1.729,1.729,1.729c0.948,0,1.728-0.78,1.728-1.729v-1.254c0-0.305,0.238-0.542,0.543-0.542h1.085
						c0.305,0,0.542,0.237,0.542,0.542v1.254c0,2.136-1.763,3.897-3.898,3.897c-2.17,0-3.898-1.762-3.898-3.897v-8.983
						c0-2.136,1.729-3.898,3.898-3.898c2.135,0,3.898,1.763,3.898,3.898v1.152c0,0.306-0.237,0.543-0.542,0.543H95.66
						C95.354,92.192,95.117,91.955,95.117,91.649z"/>
					<path fill="#262626" d="M108.439,90.497v8.949c0,2.17-1.762,3.932-3.898,3.932c-2.169,0-3.932-1.762-3.932-3.932v-8.949
						c0-2.136,1.763-3.898,3.932-3.898C106.677,86.599,108.439,88.361,108.439,90.497z M106.27,90.497
						c0-0.949-0.779-1.729-1.729-1.729c-0.983,0-1.763,0.779-1.763,1.729v8.949c0,0.983,0.78,1.763,1.763,1.763
						c0.949,0,1.729-0.78,1.729-1.763V90.497z"/>
					<path fill="#262626" d="M119.931,90.531v12.304c0,0.305-0.237,0.542-0.542,0.542h-1.085c-0.305,0-0.542-0.237-0.542-0.542
						V96.09h-3.492v6.745c0,0.305-0.237,0.542-0.542,0.542h-1.084c-0.306,0-0.542-0.237-0.542-0.542V90.531
						c0-2.136,1.763-3.898,3.932-3.898C118.168,86.633,119.931,88.396,119.931,90.531z M117.762,90.531
						c0-0.949-0.78-1.729-1.729-1.729c-0.982,0-1.762,0.779-1.762,1.729v3.389h3.492V90.531z"/>
					<path fill="#262626" d="M128.88,91.649v-1.152c0-0.949-0.78-1.729-1.729-1.729c-0.95,0-1.729,0.779-1.729,1.729
						c0,0.441,0,0.441,0.103,0.577l4.711,6.236c0.814,1.085,0.814,1.085,0.814,2.17c0,2.136-1.763,3.897-3.898,3.897
						c-2.136,0-3.898-1.762-3.898-3.897v-1.152c0-0.305,0.237-0.542,0.542-0.542h1.084c0.305,0,0.542,0.237,0.542,0.542v1.152
						c0,0.949,0.78,1.729,1.729,1.729c0.949,0,1.729-0.78,1.729-1.729c0-0.441,0-0.441-0.102-0.577l-4.711-6.236
						c-0.814-1.085-0.814-1.085-0.814-2.17c0-2.136,1.763-3.898,3.898-3.898c2.135,0,3.898,1.763,3.898,3.898v1.152
						c0,0.306-0.238,0.543-0.543,0.543h-1.084C129.117,92.192,128.88,91.955,128.88,91.649z"/>
					<path fill="#262626" d="M140.337,87.142v1.084c0,0.306-0.237,0.542-0.541,0.542h-1.526v14.067c0,0.271-0.237,0.542-0.542,0.542
						h-1.084c-0.306,0-0.542-0.271-0.542-0.542V88.769h-1.525c-0.305,0-0.542-0.237-0.542-0.542v-1.084
						c0-0.306,0.238-0.543,0.542-0.543h5.221C140.1,86.599,140.337,86.836,140.337,87.142z"/>
					<path fill="#262626" d="M157.219,90.497v8.949c0,2.17-1.763,3.932-3.899,3.932c-2.169,0-3.932-1.762-3.932-3.932v-8.949
						c0-2.136,1.763-3.898,3.932-3.898C155.456,86.599,157.219,88.361,157.219,90.497z M155.049,90.497
						c0-0.949-0.78-1.729-1.729-1.729c-0.982,0-1.762,0.779-1.762,1.729v8.949c0,0.983,0.78,1.763,1.762,1.763
						c0.949,0,1.729-0.78,1.729-1.763V90.497z"/>
					<path fill="#262626" d="M166.506,91.649v-1.152c0-0.949-0.779-1.729-1.728-1.729c-0.949,0-1.729,0.779-1.729,1.729v8.983
						c0,0.949,0.78,1.729,1.729,1.729c0.948,0,1.728-0.78,1.728-1.729v-1.254c0-0.305,0.239-0.542,0.542-0.542h1.085
						c0.306,0,0.543,0.237,0.543,0.542v1.254c0,2.136-1.763,3.897-3.898,3.897c-2.17,0-3.898-1.762-3.898-3.897v-8.983
						c0-2.136,1.729-3.898,3.898-3.898c2.135,0,3.898,1.763,3.898,3.898v1.152c0,0.306-0.237,0.543-0.543,0.543h-1.085
						C166.745,92.192,166.506,91.955,166.506,91.649z"/>
					<path fill="#262626" d="M174.168,88.769v5.118h2.948c0.305,0,0.542,0.238,0.542,0.542v1.084c0,0.306-0.237,0.542-0.542,0.542
						h-2.948v5.153h2.948c0.305,0,0.542,0.237,0.542,0.542v1.084c0,0.305-0.237,0.542-0.542,0.542h-4.033
						c-0.61,0-1.084-0.508-1.084-1.085V87.684c0-0.61,0.475-1.085,1.084-1.085h4.033c0.305,0,0.542,0.237,0.542,0.543v1.084
						c0,0.306-0.237,0.542-0.542,0.542H174.168z"/>
					<path fill="#262626" d="M189.151,90.531v12.304c0,0.305-0.237,0.542-0.543,0.542h-1.084c-0.306,0-0.543-0.237-0.543-0.542
						V96.09h-3.492v6.745c0,0.305-0.237,0.542-0.542,0.542h-1.083c-0.305,0-0.542-0.237-0.542-0.542V90.531
						c0-2.136,1.762-3.898,3.932-3.898C187.389,86.633,189.151,88.396,189.151,90.531z M186.981,90.531
						c0-0.949-0.779-1.729-1.728-1.729c-0.984,0-1.764,0.779-1.764,1.729v3.389h3.492V90.531z"/>
					<path fill="#262626" d="M200.642,90.497v12.338c0,0.271-0.237,0.542-0.543,0.542h-1.083c-0.306,0-0.543-0.271-0.543-0.542
						V90.497c0-0.949-0.779-1.729-1.729-1.729c-0.983,0-1.763,0.779-1.763,1.729v12.338c0,0.271-0.237,0.542-0.543,0.542h-1.084
						c-0.306,0-0.543-0.271-0.543-0.542V90.497c0-2.136,1.762-3.898,3.933-3.898C198.88,86.599,200.642,88.361,200.642,90.497z"/>
					<path fill="#262626" d="M32.855,119.933V136.9c0,4.129-3.29,7.483-7.418,7.483h-5.419c-1.097,0-2.065-0.967-2.065-2.063
						v-27.806c0-1.162,0.968-2.065,2.065-2.065h5.419C29.566,112.45,32.855,115.805,32.855,119.933z M28.727,119.933
						c0-1.871-1.484-3.354-3.29-3.354h-3.355v23.612h3.355c1.806,0,3.29-1.483,3.29-3.29V119.933z"/>
					<path fill="#262626" d="M54.082,119.933v23.419c0,0.58-0.451,1.031-1.032,1.031h-2.064c-0.581,0-1.033-0.451-1.033-1.031
						v-12.839h-6.645v12.839c0,0.58-0.452,1.031-1.032,1.031h-2.064c-0.581,0-1.033-0.451-1.033-1.031v-23.419
						c0-4.064,3.355-7.419,7.484-7.419C50.727,112.514,54.082,115.869,54.082,119.933z M49.953,119.933
						c0-1.806-1.484-3.29-3.29-3.29c-1.871,0-3.354,1.484-3.354,3.29v6.453h6.645V119.933z"/>
					<path fill="#262626" d="M71.759,113.482v2.064c0,0.581-0.452,1.032-1.032,1.032h-2.904v26.774c0,0.516-0.452,1.031-1.032,1.031
						h-2.064c-0.581,0-1.033-0.516-1.033-1.031v-26.774h-2.904c-0.58,0-1.032-0.452-1.032-1.032v-2.064
						c0-0.581,0.452-1.032,1.032-1.032h9.936C71.307,112.45,71.759,112.901,71.759,113.482z"/>
					<path fill="#262626" d="M92.339,119.933v23.419c0,0.58-0.452,1.031-1.032,1.031h-2.064c-0.581,0-1.032-0.451-1.032-1.031
						v-12.839h-6.645v12.839c0,0.58-0.452,1.031-1.032,1.031h-2.064c-0.581,0-1.032-0.451-1.032-1.031v-23.419
						c0-4.064,3.354-7.419,7.484-7.419C88.984,112.514,92.339,115.869,92.339,119.933z M88.21,119.933c0-1.806-1.484-3.29-3.29-3.29
						c-1.871,0-3.355,1.484-3.355,3.29v6.453h6.645V119.933z"/>
					<path fill="#262626" d="M123.822,119.869v3.097c0,4.128-3.354,7.484-7.418,7.484h-3.355v12.903
						c0,0.516-0.452,1.031-1.032,1.031h-2.064c-0.516,0-1.032-0.516-1.032-1.031V130.45v-4.13v-12.838
						c0-0.581,0.516-1.032,1.032-1.032h6.452C120.468,112.45,123.822,115.805,123.822,119.869z M119.694,119.869
						c0-1.807-1.484-3.291-3.29-3.291h-3.355v9.741h3.355c1.806,0,3.29-1.483,3.29-3.354V119.869z"/>
					<path fill="#262626" d="M143.693,119.869V136.9c0,4.129-3.354,7.483-7.418,7.483c-4.129,0-7.484-3.354-7.484-7.483v-17.031
						c0-4.064,3.354-7.419,7.484-7.419C140.339,112.45,143.693,115.805,143.693,119.869z M139.564,119.869
						c0-1.807-1.484-3.291-3.29-3.291c-1.871,0-3.355,1.484-3.355,3.291V136.9c0,1.871,1.484,3.355,3.355,3.355
						c1.806,0,3.29-1.484,3.29-3.355V119.869z"/>
					<path fill="#262626" d="M164.533,122.966c0,2.128-0.838,4.064-2.259,5.419c1.42,1.354,2.259,3.225,2.259,5.354v9.613
						c0,0.516-0.452,1.031-1.033,1.031h-2.064c-0.581,0-1.032-0.516-1.032-1.031v-9.613c0-1.807-1.483-3.29-3.291-3.29h-3.29v12.903
						c0,0.516-0.516,1.031-1.032,1.031h-2.065c-0.58,0-1.032-0.516-1.032-1.031v-28.838c0-1.162,0.903-2.065,2.064-2.065h5.354
						c4.13,0,7.42,3.355,7.42,7.419V122.966z M160.403,119.869c0-1.807-1.483-3.291-3.291-3.291h-3.29v9.741h3.29
						c1.807,0,3.291-1.483,3.291-3.354V119.869z"/>
					<path fill="#262626" d="M182.21,113.482v2.064c0,0.581-0.451,1.032-1.032,1.032h-2.904v26.774c0,0.516-0.452,1.031-1.032,1.031
						h-2.063c-0.581,0-1.033-0.516-1.033-1.031v-26.774h-2.903c-0.58,0-1.032-0.452-1.032-1.032v-2.064
						c0-0.581,0.452-1.032,1.032-1.032h9.936C181.759,112.45,182.21,112.901,182.21,113.482z"/>
					<path fill="#262626" d="M202.79,119.933v23.419c0,0.58-0.451,1.031-1.032,1.031h-2.064c-0.581,0-1.033-0.451-1.033-1.031
						v-12.839h-6.644v12.839c0,0.58-0.452,1.031-1.033,1.031h-2.063c-0.581,0-1.033-0.451-1.033-1.031v-23.419
						c0-4.064,3.355-7.419,7.484-7.419C199.435,112.514,202.79,115.869,202.79,119.933z M198.661,119.933
						c0-1.806-1.483-3.29-3.29-3.29c-1.871,0-3.354,1.484-3.354,3.29v6.453h6.644V119.933z"/>
					<path fill="#262626" d="M219.821,141.287v2.065c0,0.516-0.45,1.031-1.031,1.031h-7.613c-1.161,0-2.063-0.967-2.063-2.063
						v-28.838c0-0.581,0.451-1.032,1.031-1.032h2.065c0.516,0,1.031,0.451,1.031,1.032v26.773h5.548
						C219.372,140.255,219.821,140.708,219.821,141.287z"/>
				</g>
			</g>
			<g>
				<g>
					<path fill="#BABA27" d="M167.507,27.104c-1.241-1.157-5.475,0.03-6.833,0.598c-1.827,0.765-3.252,2.155-4.114,3.935
						c-0.319,0.662-1.798,4.684-1.201,6.009c-1.279,1.611-1.819,3.616-1.427,5.46c0.119,0.558,0.315,1.101,0.609,1.612
						c0.055,0.095,0.131,0.167,0.216,0.225c0.278-0.029,0.556-0.051,0.833-0.075c0.227-0.212,0.296-0.551,0.136-0.831
						c-0.197-0.342-0.333-0.703-0.426-1.074c-0.402-1.608,0.144-3.415,1.412-4.801c4.243,0.327,8.453-1.491,10.07-5.639
						C167.178,31.503,168.419,28.068,167.507,27.104z"/>
					<path fill="#BABA27" d="M208.678,53.284c0.668-0.608,2.849-2.697,2.527-3.745c-0.494-1.313-4.064-1.988-5.278-2.066
						c-1.634-0.106-3.199,0.401-4.49,1.401c-0.394,0.306-2.199,2.001-2.86,3.263c-2.182,0.192-4.067,1.345-5.039,3.019
						c-0.331,0.569-0.555,1.195-0.648,1.867c0.36,0.245,0.72,0.499,1.08,0.751c0.135-0.109,0.233-0.266,0.254-0.453
						c0.055-0.499,0.212-0.965,0.445-1.392c0.741-1.357,2.29-2.279,4.089-2.421C201.839,55.533,205.837,55.872,208.678,53.284z"/>
					<path fill="#BABA27" d="M196.038,45.528c0.753-0.649,3.215-2.878,2.892-4.041c-0.503-1.458-4.41-2.31-5.742-2.432
						c-1.793-0.165-3.53,0.344-4.979,1.405c-0.487,0.356-2.9,2.51-3.428,3.896c-0.995,0.194-1.926,0.587-2.723,1.171
						c-0.809,0.593-1.42,1.335-1.809,2.168c-0.263,0.559-0.427,1.159-0.478,1.784c-0.002,0.038,0.011,0.07,0.013,0.107
						c0.355,0.162,0.709,0.325,1.064,0.493c0.157-0.113,0.271-0.284,0.286-0.492c0.037-0.462,0.16-0.906,0.358-1.322
						c0.295-0.624,0.759-1.184,1.375-1.635c0.721-0.528,1.583-0.86,2.506-0.986C188.667,47.816,192.915,48.218,196.038,45.528z"/>
					<path fill="#BABA27" d="M180.762,38.582c0.591-0.799,2.5-3.516,1.929-4.578c-0.812-1.313-4.81-1.282-6.137-1.107
						c-1.786,0.233-3.368,1.113-4.548,2.468c-0.405,0.466-2.354,3.202-2.495,4.648c-1.384,0.784-2.418,1.996-2.86,3.404
						c-0.185,0.589-0.272,1.212-0.231,1.853c0.001,0.02,0.011,0.035,0.014,0.054c0.418,0.071,0.835,0.149,1.254,0.231
						c0.062-0.111,0.104-0.234,0.096-0.371c-0.033-0.527,0.053-1.039,0.226-1.52c0.391-1.091,1.267-2.022,2.423-2.599
						C174.113,42.437,178.319,41.88,180.762,38.582z"/>
					<path fill="#BABA27" d="M128.383,39.66c-1.752-0.643-5.538,2.369-6.67,3.525c-1.527,1.556-2.379,3.574-2.492,5.744
						c-0.039,0.745,0.142,4.809,1.085,6.295c-1.505,2.277-1.686,5.066-0.482,7.151c0.255,0.444,0.566,0.857,0.947,1.224
						c0.106,0.104,0.24,0.15,0.377,0.17c0.258-0.201,0.539-0.348,0.793-0.554c0.015-0.197-0.068-0.454-0.222-0.601
						c-0.337-0.326-0.606-0.7-0.815-1.103c-0.895-1.733-0.605-4.055,0.796-5.896c4.657-1.38,8.397-5.091,8.261-10.153
						C129.929,44.26,129.72,40.248,128.383,39.66z"/>
					<path fill="#BABA27" d="M141.999,31.784c-1.776,0.876-3.112,2.356-3.86,4.184c-0.264,0.645-1.379,4.365-0.923,5.85
						c-1.585,2.339-1.765,5.224-0.532,7.35c0.298,0.515,0.676,0.987,1.14,1.395c0.04,0.034,0.085,0.052,0.128,0.076
						c0.331-0.201,0.663-0.397,0.999-0.588c0-0.191-0.071-0.381-0.226-0.517c-0.354-0.311-0.641-0.672-0.868-1.067
						c-0.988-1.714-0.788-4.091,0.579-6.01c4.349,0.152,8.577-1.916,9.961-6.245c0.332-1.042,1.356-4.548,0.386-5.452
						C147.47,29.681,143.319,31.131,141.999,31.784z"/>
					<path fill="#BABA27" d="M219.603,63.602c0.739-0.52,3.164-2.318,2.978-3.397c-0.325-1.365-3.784-2.483-4.977-2.714
						c-1.609-0.31-3.226-0.003-4.632,0.827c-0.44,0.26-2.533,1.784-3.304,2.968c-1.861,0.418-3.411,1.545-4.223,3.063
						c-0.329,0.616-0.544,1.292-0.602,2.015c0.164,0.145,0.329,0.284,0.493,0.431c0.107,0.095,0.213,0.191,0.318,0.286
						c0.292-0.058,0.527-0.292,0.551-0.605c0.033-0.421,0.14-0.822,0.302-1.198c0.552-1.274,1.788-2.24,3.315-2.624
						C212.618,64.991,216.493,65.788,219.603,63.602z"/>
					<path fill="#BABA27" d="M229.273,74.913c0.74-0.52,3.165-2.317,2.978-3.398c-0.325-1.365-3.784-2.483-4.978-2.713
						c-1.608-0.31-3.225-0.003-4.631,0.827c-0.468,0.277-2.811,1.984-3.436,3.19c-0.383,0.172-0.747,0.378-1.083,0.625
						c-0.596,0.437-1.075,0.963-1.426,1.549c-0.373,0.624-0.599,1.317-0.66,2.047c0.246,0.246,0.491,0.491,0.736,0.736
						c0.328-0.027,0.6-0.281,0.626-0.619c0.032-0.403,0.138-0.79,0.309-1.154c0.26-0.556,0.673-1.056,1.222-1.458
						c0.23-0.168,0.476-0.314,0.735-0.438C222.447,76.334,226.226,77.054,229.273,74.913z"/>
					<path fill="#BABA27" d="M239.072,84.961c0.67-0.471,2.873-2.102,2.702-3.082c-0.294-1.237-3.435-2.253-4.517-2.462
						c-1.458-0.281-2.929-0.003-4.204,0.75c-0.386,0.229-2.186,1.535-2.933,2.593c-1.588-0.001-3.011,0.709-3.833,1.823
						c-0.411,0.558-0.672,1.212-0.728,1.926c-0.002,0.018,0.005,0.034,0.005,0.051c0.23,0.228,0.461,0.455,0.692,0.683
						c0.346-0.008,0.638-0.274,0.665-0.626c0.03-0.383,0.154-0.741,0.352-1.059c0.552-0.892,1.679-1.466,2.954-1.431
						C232.762,86.229,236.26,86.938,239.072,84.961z"/>
					<path fill="#BABA27" d="M246.566,93.373c0.61-0.43,2.611-1.913,2.456-2.804c-0.267-1.125-3.123-2.048-4.107-2.238
						c-1.326-0.256-2.659-0.004-3.821,0.681c-0.331,0.195-1.792,1.257-2.532,2.183c-1.492,0.061-2.81,0.756-3.594,1.806
						c-0.416,0.557-0.682,1.213-0.742,1.93c0.262,0.246,0.523,0.491,0.788,0.735c0.302-0.05,0.547-0.29,0.572-0.608
						c0.032-0.406,0.171-0.78,0.389-1.11c0.502-0.763,1.434-1.28,2.507-1.369C240.791,94.515,243.995,95.18,246.566,93.373z"/>
					<path fill="#BABA27" d="M255.99,102.229c0.565-0.375,2.42-1.673,2.302-2.487c-0.215-1.029-2.788-1.939-3.678-2.136
						c-1.198-0.263-2.417-0.066-3.488,0.527c-0.31,0.171-1.702,1.126-2.386,1.958c-1.097-0.011-2.143,0.309-2.984,0.924
						c-0.344,0.251-0.637,0.543-0.877,0.861c-0.417,0.553-0.673,1.193-0.744,1.88c0.309,0.259,0.617,0.517,0.927,0.774
						c0.231-0.095,0.402-0.312,0.423-0.579c0.034-0.428,0.197-0.827,0.45-1.184c0.17-0.239,0.372-0.462,0.628-0.649
						c0.632-0.463,1.437-0.684,2.282-0.651C250.881,103.167,253.679,103.763,255.99,102.229z"/>
					<path fill="#BABA27" d="M265.739,109.949c0.51-0.343,2.191-1.527,2.079-2.266c-0.199-0.932-2.536-1.748-3.343-1.924
						c-1.09-0.235-2.195-0.052-3.165,0.491c-0.275,0.154-1.495,0.996-2.125,1.744c-1.717-0.072-3.261,0.684-4.109,1.889
						c-0.382,0.542-0.625,1.171-0.679,1.855c-0.002,0.006,0.002,0.011,0,0.016c0.313,0.224,0.623,0.449,0.937,0.67
						c0.231-0.095,0.404-0.312,0.425-0.579c0.032-0.428,0.186-0.822,0.427-1.168c0.607-0.873,1.784-1.418,3.087-1.318
						c0.022,0.001,0.042-0.008,0.063-0.008C261.183,110.833,263.677,111.327,265.739,109.949z"/>
					<path fill="#BABA27" d="M275.353,113.947c-0.22-0.757-2.194-1.292-2.872-1.388c-0.911-0.13-1.812,0.085-2.58,0.591
						c-0.229,0.15-1.268,0.984-1.715,1.656c-0.702,0.137-1.359,0.416-1.923,0.829c-0.375,0.275-0.691,0.596-0.943,0.951
						c-0.385,0.54-0.62,1.161-0.682,1.821c0.367,0.214,0.737,0.422,1.108,0.632c0.137-0.113,0.232-0.275,0.246-0.466
						c0.036-0.472,0.229-0.911,0.532-1.293c0.154-0.196,0.33-0.382,0.547-0.541c0.513-0.376,1.139-0.598,1.812-0.65
						c1.54,0.879,3.41,1,4.889-0.151C274.172,115.624,275.487,114.549,275.353,113.947z"/>
					<path fill="#BABA27" d="M281.025,118.521c-0.833-0.047-1.632,0.22-2.284,0.737c-0.171,0.134-0.856,0.787-1.263,1.378
						c-0.792,0.215-1.481,0.652-1.967,1.236c-0.414,0.498-0.683,1.101-0.738,1.767c0.05,0.023,0.102,0.047,0.153,0.071
						c0.34,0.153,0.688,0.295,1.029,0.444c0.096-0.107,0.167-0.24,0.178-0.395c0.042-0.517,0.313-0.965,0.72-1.301
						c0.296-0.246,0.669-0.418,1.083-0.516c1.486,0.73,3.242,0.719,4.521-0.468c0.338-0.314,1.444-1.389,1.273-1.922
						C283.471,118.883,281.646,118.555,281.025,118.521z"/>
					<path fill="#BABA27" d="M290.953,122.181c-0.751-0.102-1.494,0.082-2.125,0.505c-0.181,0.121-0.987,0.778-1.367,1.326
						c-0.541,0.204-1.029,0.51-1.43,0.91c-0.234,0.234-0.426,0.491-0.579,0.762c-0.315,0.555-0.464,1.173-0.416,1.807
						c0.003,0.029,0.016,0.052,0.021,0.079c0.378,0.12,0.761,0.23,1.141,0.346c0.133-0.136,0.215-0.321,0.201-0.527
						c-0.035-0.455,0.119-0.899,0.42-1.284c0.056-0.073,0.109-0.148,0.177-0.216c0.32-0.32,0.731-0.546,1.19-0.674
						c1.238,0.625,2.697,0.66,3.853-0.254c0.329-0.26,1.406-1.156,1.291-1.651C293.144,122.685,291.513,122.257,290.953,122.181z"/>
				</g>
				<path fill="#BABA27" d="M296.091,130.359c-0.061,0-0.124-0.005-0.185-0.018c-7.325-1.435-14.389-3.666-20.991-6.631
					c-22.375-10.05-39.524-27.25-56.11-43.885c-1.351-1.356-2.703-2.713-4.06-4.067c-2.527-2.522-5.881-5.82-9.421-8.963
					c-9.587-8.51-18.872-14.543-28.386-18.442c-15.852-6.495-32.062-4.232-44.469,6.21c-0.919,0.774-1.833,1.564-2.75,2.356
					c-5.021,4.341-10.213,8.83-16.75,11.021c-0.502,0.167-1.043-0.102-1.211-0.603c-0.168-0.501,0.102-1.043,0.603-1.211
					c6.18-2.071,11.227-6.435,16.107-10.654c0.922-0.798,1.843-1.594,2.769-2.373c12.97-10.917,29.893-13.293,46.426-6.517
					c9.718,3.982,19.18,10.126,28.93,18.782c3.579,3.176,6.958,6.5,9.503,9.04c1.357,1.355,2.71,2.713,4.064,4.071
					c16.463,16.512,33.487,33.584,55.538,43.491c6.47,2.905,13.391,5.092,20.574,6.499c0.519,0.102,0.856,0.604,0.755,1.123
					C296.939,130.042,296.539,130.359,296.091,130.359L296.091,130.359z"/>
			</g>
		</g>
		<g id="New_Symbol_29">
		</g>
	</g>
	<g id="New_Symbol_63">
		<g id="New_Symbol_228">
		</g>
	</g>
</g>
<g id="Guides" display="none">
</g>
</svg>
